<?xml version="1.0" encoding="UTF-8"?>
<svg width="98px" height="26px" viewBox="0 0 98 26" version="1.1" xmlns="http://www.w3.org/2000/svg" xmlns:xlink="http://www.w3.org/1999/xlink">
    <!-- Generator: Sketch 51.3 (57544) - http://www.bohemiancoding.com/sketch -->
    <title>LOGO</title>
    <desc>Created with Sketch.</desc>
    <defs></defs>
    <g id="Navigation" stroke="none" stroke-width="1" fill="none" fill-rule="evenodd">
        <g id="GlobalNav/Guest/XS" transform="translate(-111.000000, -15.000000)" fill="#FFFFFF">
            <g id="LOGO" transform="translate(111.000000, 15.000000)">
                <g id="Group-2" transform="translate(21.000000, 0.000000)">
                    <path d="M17.6314049,9.532192 C15.6948497,9.532192 15.1196928,8.576992 15.1196928,6.993952 C15.1196928,5.439712 15.6948497,4.489312 17.6314049,4.489312 C19.5563408,4.489312 20.136339,5.439712 20.136339,6.993952 C20.136339,8.576992 19.5563408,9.532192 17.6314049,9.532192 M17.6314049,2.910112 C14.7362549,2.910112 12.8064776,4.171552 12.8064776,6.993952 C12.8064776,9.849952 14.7362549,11.095072 17.6314049,11.095072 C20.5226818,11.095072 22.4447128,9.849952 22.4447128,6.993952 C22.4447128,4.171552 20.5226818,2.910112 17.6314049,2.910112" id="Fill-68"></path>
                    <path d="M41.0591719,7.926304 C41.0591719,9.386464 39.6483914,9.514144 38.3567091,9.514144 C37.9103331,9.514144 37.2063953,9.419104 37.2063953,8.557984 C37.2063953,7.989664 37.9868271,7.609504 38.9357391,7.609504 L41.0591719,7.609504 L41.0591719,7.926304 Z M43.368514,5.423584 C43.368514,3.838624 41.6565992,2.890144 39.1293946,2.890144 C37.8280295,2.890144 36.228435,3.394144 35.6784533,3.582304 C35.6261663,3.912544 35.4615591,4.952224 35.4286377,5.170144 C35.9311737,5.059744 37.9025869,4.470304 39.1293946,4.470304 C40.3949335,4.470304 41.0591719,4.898464 41.0591719,5.517664 L41.0591719,6.185824 C41.0591719,6.185824 39.4963719,6.034144 38.9357391,6.034144 C36.413376,6.034144 34.8864022,6.927904 34.8864022,8.557984 C34.8864022,10.622944 37.1841249,11.074144 38.3567091,11.074144 C39.9379064,11.074144 40.7657838,10.656544 41.1540631,10.306144 L41.2876854,10.924384 L43.605742,10.924384 C43.5786302,10.801504 43.368514,10.249504 43.368514,9.514144 L43.368514,5.423584 Z" id="Fill-69"></path>
                    <path d="M6.35348838,0.268768 C9.0714436,0.264928 10.7591515,1.116448 11.6964442,2.455648 L9.26897223,3.390688 C8.74513405,2.653408 7.86690626,2.169568 6.38447326,2.160928 L6.32444005,2.160928 C4.8739602,2.168608 4.00638347,2.621728 3.47576735,3.329248 C3.01196238,3.942688 2.75924193,4.732768 2.75924193,5.629408 L2.75924193,5.777248 L2.75730537,5.777248 C2.76795642,6.632608 3.02358171,7.459168 3.47576735,8.053408 C4.00638347,8.755168 4.8739602,9.218848 6.32444005,9.221728 L6.38447326,9.221728 C7.83882621,9.218848 8.71414916,8.743648 9.24282873,8.031328 L11.6964442,8.964448 C10.7543101,10.285408 9.04820494,11.094688 6.36607598,11.094688 L6.35348838,11.094688 C3.96958893,11.094688 2.37096261,10.470688 1.3900974,9.395488 C0.497345454,8.429728 0.0432232593,7.146208 0.0461280921,5.725408 L0.0461280921,5.629408 C0.0432232593,4.240288 0.498313731,2.951968 1.38816085,1.991968 C2.36902605,0.919648 3.96862065,0.266848 6.35348838,0.268768" id="Fill-70"></path>
                    <path d="M29.0001458,9.52192 C27.0364789,9.52192 26.4952117,8.40736 26.4952117,6.98848 C26.5368476,5.47936 27.0364789,4.48 29.0001458,4.48 C30.7779035,4.48 31.1235786,5.58976 31.1235786,6.98848 C31.1235786,8.40736 30.7779035,9.52192 29.0001458,9.52192 M29.0001458,2.89888 C27.5564439,2.89888 26.4380833,3.73984 26.4380833,3.73984 C26.4380833,3.73984 26.3141438,3.27424 26.2628251,3.0592 L23.9341174,3.0592 C24.0173893,3.34336 24.1819965,3.89152 24.1819965,4.48 L24.1819965,13.432 L26.4952117,13.432 L26.4952117,10.31392 C26.9609532,10.65088 27.8246568,11.0896 29.0001458,11.0896 C32.8800342,11.0896 33.4396986,9.25216 33.4396986,6.98848 C33.4396986,4.74688 32.8800342,2.89888 29.0001458,2.89888" id="Fill-73"></path>
                </g>
                <g id="Group-3" transform="translate(0.000000, 14.000000)">
                    <path d="M8.068138,6.612832 L6.45692407,3.077152 L4.83312254,6.612832 L8.068138,6.612832 Z M4.95803035,0.572512 L7.95678607,0.572512 C8.47771942,1.694752 12.7962375,10.922272 12.7962375,10.922272 L10.0550436,10.922272 L8.92700023,8.497312 L3.95102164,8.497312 L2.85396312,10.924192 L0.102118186,10.924192 L4.95803035,0.572512 Z" id="Fill-65"></path>
                    <path d="M40.3937952,2.890048 C38.6567052,2.890048 37.8123671,3.796288 37.8123671,3.796288 L37.6700303,3.047488 L35.3248619,3.047488 C35.4178166,3.328768 35.572741,3.849088 35.572741,4.309888 L35.572741,10.924288 L37.8917659,10.924288 L37.8917659,6.336448 C37.8917659,5.108608 38.6567052,4.470208 40.3937952,4.470208 C41.3485169,4.470208 41.9333566,4.783168 41.9333566,6.336448 L41.9333566,10.924288 L44.2426986,10.924288 L44.2426986,6.336448 C44.2426986,3.995968 43.4806642,2.890048 40.3937952,2.890048" id="Fill-66"></path>
                    <path d="M48.3887665,6.192832 C48.5243254,5.222272 48.9687648,4.478272 50.7978412,4.478272 C52.1408422,4.478272 52.6220762,5.332672 52.6995384,6.192832 L48.3887665,6.192832 Z M50.7978412,2.916352 C46.8598562,2.916352 45.9835649,4.745152 45.9835649,6.986752 C45.9835649,9.252352 46.8424272,11.087872 50.9905284,11.087872 C52.5087877,11.087872 53.9273144,10.806592 54.2507191,10.740352 C54.3126888,10.339072 54.4472794,9.468352 54.4908519,9.169792 C54.2691164,9.191872 52.4719931,9.520192 50.9905284,9.520192 C49.0626877,9.520192 48.5465957,8.791552 48.3887665,7.778752 L55.0553578,7.778752 L55.0553578,6.986752 C55.0553578,4.163392 53.5341937,2.916352 50.7978412,2.916352 Z" id="Fill-67"></path>
                    <path d="M28.6307716,9.673792 L28.6307716,0.576832 L26.3156198,0.576832 L26.3156198,9.673792 C26.3156198,10.225792 26.5121802,10.789312 26.5615624,10.924672 L28.8786507,10.924672 C28.8447609,10.791232 28.6307716,10.251712 28.6307716,9.673792" id="Fill-71"></path>
                    <path d="M20.8978162,6.32128 C20.907499,5.10976 21.810902,4.4704 23.4046869,4.4704 C23.669995,4.4704 24.7128299,4.60192 25.1601742,4.66048 C25.1398404,4.45792 24.9791063,3.48064 24.9122951,3.07744 C24.5821125,3.016 23.8423484,2.89024 23.4046869,2.89024 C22.0471617,2.89024 21.2851272,3.38464 20.8629582,3.75904 L20.6673661,3.04768 L18.3386585,3.04768 C18.3812627,3.20704 18.5787913,3.74368 18.5826645,4.28992 L18.5826645,10.92256 L20.8978162,10.92256 L20.8978162,6.32128 Z" id="Fill-72"></path>
                    <path d="M63.3980376,3.313792 L63.3980376,5.095552 C62.9458519,4.853632 62.4733325,4.667392 61.983384,4.545472 C61.4876259,4.421632 60.9947726,4.360192 60.5028875,4.360192 C59.9538741,4.360192 59.5384831,4.427392 59.2547777,4.560832 C58.9788186,4.690432 58.8345452,4.891072 58.8345452,5.151232 C58.8345452,5.523712 59.4377822,5.823232 60.6345733,6.056512 L60.7255914,6.075712 L61.4353389,6.212032 C62.3377736,6.389632 62.9952341,6.673792 63.4106252,7.064512 C63.8308577,7.463872 64.0351642,7.991872 64.0351642,8.657152 C64.0351642,9.468352 63.7175692,10.076992 63.0804425,10.475392 C62.4481572,10.877632 61.4876259,11.076352 60.2094994,11.076352 C59.6440253,11.076352 59.0591856,11.037952 58.4636949,10.960192 C57.8740139,10.873792 57.2688404,10.757632 56.6597937,10.592512 L56.6597937,8.796352 C57.2029975,9.058432 57.7568523,9.252352 58.3203898,9.388672 C58.8819908,9.527872 59.4280994,9.596992 59.9558107,9.596992 C60.5309676,9.596992 60.9695973,9.523072 61.2678268,9.383872 C61.5621832,9.240832 61.7151711,9.040192 61.7151711,8.770432 C61.7151711,8.513152 61.6057557,8.312512 61.3995126,8.168512 C61.1893964,8.025472 60.6829872,7.886272 59.8957775,7.725952 L59.2112052,7.596352 C58.2729442,7.428352 57.5844989,7.148032 57.1555519,6.772672 C56.7256366,6.391552 56.5077742,5.894272 56.5077742,5.262592 C56.5077742,4.506112 56.8340837,3.925312 57.4896077,3.512512 C58.1490047,3.087232 59.0688684,2.880832 60.256945,2.880832 C60.7894977,2.880832 61.3201138,2.916352 61.8584762,2.985472 C62.3861875,3.058432 62.9003429,3.168832 63.3980376,3.313792" id="Fill-74"></path>
                    <path d="M32.0991419,2.438176 C32.5987732,2.438176 32.9444483,2.374816 33.1293893,2.239456 C33.3123938,2.100256 33.4063167,1.858336 33.4063167,1.497376 C33.4063167,1.156576 33.3162669,0.913696 33.1410086,0.778336 C32.9570359,0.643936 32.6200753,0.575776 32.1185075,0.575776 C31.6091935,0.575776 31.2673915,0.647776 31.0814822,0.786976 C30.8984777,0.927136 30.8113327,1.175776 30.8113327,1.532896 C30.8113327,1.879456 30.8946046,2.111776 31.0688946,2.244256 C31.2509308,2.374816 31.5927328,2.438176 32.0991419,2.438176 M33.2591385,9.673696 L33.2591385,3.043936 L30.9488282,3.043936 L30.9488282,9.673696 C30.9488282,10.258336 31.1666906,10.842016 31.1986438,10.924576 L33.5079859,10.924576 C33.4663499,10.778656 33.2591385,10.236256 33.2591385,9.673696" id="Fill-75"></path>
                    <path d="M15.1032557,2.438176 C15.6048235,2.438176 15.9456572,2.374816 16.1335031,2.239456 C16.3155393,2.100256 16.4143036,1.858336 16.4143036,1.497376 C16.4143036,1.156576 16.3174758,0.913696 16.1441541,0.778336 C15.962118,0.643936 15.6232208,0.575776 15.1245578,0.575776 C14.6142755,0.575776 14.2715053,0.647776 14.0875325,0.786976 C13.9064646,0.927136 13.8154465,1.175776 13.8154465,1.532896 C13.8154465,1.879456 13.9025915,2.111776 14.0778497,2.244256 C14.2550445,2.374816 14.5968465,2.438176 15.1032557,2.438176 M16.2661571,9.673696 L16.2661571,3.043936 L13.9529419,3.043936 L13.9529419,9.673696 C13.9529419,10.258336 14.1737092,10.842016 14.2056624,10.924576 L16.5120996,10.924576 C16.4704637,10.778656 16.2661571,10.236256 16.2661571,9.673696" id="Fill-76"></path>
                </g>
                <path d="M95.8088063,23.311072 L95.5744832,23.311072 L95.5744832,22.935712 L95.9501749,22.935712 C96.1099407,22.935712 96.3084376,22.962592 96.3084376,23.116192 C96.3084376,23.346592 95.9908425,23.311072 95.8088063,23.311072 M96.5098393,23.116192 C96.5098393,22.803232 96.2551823,22.733152 95.9937474,22.733152 L95.3721131,22.733152 L95.3721131,24.190432 L95.5744832,24.190432 L95.5744832,23.525152 L95.8088063,23.525152 L96.2474361,24.190432 L96.4914421,24.190432 L96.0528123,23.525152 C96.3123107,23.515552 96.5098393,23.408992 96.5098393,23.116192" id="Fill-77"></path>
                <path d="M95.8579948,24.584224 C95.258631,24.584224 94.7280149,24.098464 94.7280149,23.476384 C94.7280149,22.845664 95.258631,22.353184 95.8579948,22.353184 C96.4651049,22.353184 96.9908796,22.845664 96.9908796,23.476384 C96.9908796,24.098464 96.4651049,24.584224 95.8579948,24.584224 M95.8579948,22.170784 C95.1201673,22.170784 94.5246766,22.729504 94.5246766,23.476384 C94.5246766,24.214624 95.1201673,24.790624 95.8579948,24.790624 C96.6035686,24.790624 97.1961545,24.214624 97.1961545,23.476384 C97.1961545,22.729504 96.6035686,22.170784 95.8579948,22.170784" id="Fill-78"></path>
                <path d="M68.0275664,11.5 L68.0275664,12.24688 C70.5770413,11.26096 73.1487866,10.66 75.6169262,10.3048 C73.3424422,10.24624 70.6680594,10.63024 68.0275664,11.5" id="Fill-79"></path>
                <path d="M81.9654383,12.27904 C81.3641379,11.84704 80.7337892,11.45248 79.9194678,11.12128 C80.1915538,11.104 80.4733225,11.0608 80.7928542,11.04448 C81.3011999,11.37856 81.9848039,11.90944 82.3895439,12.41536 L81.9654383,12.27904 Z M76.3620159,9.17152 C75.7355403,8.93728 74.9948079,8.7808 74.2589169,8.67712 C74.5774802,8.60704 74.8892656,8.54656 75.2446235,8.50336 C75.7607155,8.64352 76.4423829,8.8864 77.0930654,9.2848 L76.3620159,9.17152 Z M68.0270823,7.56736 C68.7135911,7.5472 69.4988642,7.77472 70.349012,7.88608 L68.8549596,8.07616 C68.6003026,8.08672 68.3146607,8.10976 68.0270823,8.1376 L68.0270823,8.47168 C69.1096166,8.27104 70.2938201,8.14048 71.3918469,8.13088 C81.0126532,5.84896 88.9825461,7.99744 88.9825461,7.99744 C87.2725679,7.6096 77.7447163,6.31744 68.0270823,10.11232 L68.0270823,10.68832 C69.4698159,10.20352 70.9938848,9.82912 72.4521109,9.65728 C74.6142748,9.39232 76.6244191,9.5104 78.3169683,9.98656 C85.427999,9.48064 90.5811724,10.99552 90.5811724,10.99552 C88.6465538,10.6816 78.2646813,9.26464 68.0270823,13.91968 L68.0270823,14.3824 C70.8612308,13.03552 73.833843,12.25888 76.3678255,12.0928 C78.936666,11.95552 81.2343887,12.31936 82.961796,13.3408 C87.0353398,13.2784 90.1396378,13.80256 91.8747913,14.22208 L91.8747913,1.1536 L68.0270823,1.1536 L68.0270823,7.56736 Z" id="Fill-80"></path>
                <path d="M68.0275664,15.336256 L68.0275664,16.780096 C72.2163353,14.755456 76.4864395,13.793536 80.2065621,13.474816 C76.8079077,12.877696 72.4516268,13.493056 68.0275664,15.336256" id="Fill-81"></path>
                <path d="M86.3321766,17.056576 C85.6098416,15.996736 84.6948192,15.196096 83.4254073,14.582656 C83.8049721,14.537536 84.282333,14.524096 84.6386591,14.507776 C84.7655035,14.600896 84.8865382,14.717056 85.0007949,14.858176 C85.0443674,14.920576 86.459021,16.305856 86.933477,17.716096 L86.3321766,17.056576 Z M68.0278569,18.683776 L68.0278569,19.283776 C68.3154354,19.120576 68.6039821,18.965056 68.8750998,18.820096 C71.0178981,17.674816 73.1587599,16.877056 75.2986534,16.391296 C77.3242901,15.911296 79.3082909,15.741376 81.1218749,15.901696 C84.5505459,16.207936 87.0128758,17.696896 88.1990159,20.267776 C88.2096669,20.286976 89.0569098,22.175296 89.1382451,23.956096 L88.7267272,22.936576 C88.6182801,22.427776 88.4778798,21.904576 88.2096669,21.436096 C87.3314391,19.738816 85.6195243,18.520576 83.3101823,17.806336 C81.212893,17.147776 78.4591115,17.118976 75.6017243,17.674816 C73.0658053,18.152896 70.4843772,19.105216 68.0278569,20.314816 L68.0278569,24.792256 L68.2660532,24.792256 C69.7397717,23.702656 71.3296835,22.903936 72.9825334,22.252096 C77.3146074,20.399296 81.5285515,19.838656 84.6909461,20.672896 C87.0128758,21.333376 88.5301668,22.696576 89.1479279,24.792256 L91.8755659,24.792256 L91.8755659,14.411776 C87.9734072,13.970176 77.5741058,13.254976 68.0278569,18.683776 Z" id="Fill-82"></path>
                <path d="M84.2320794,22.338016 C82.1628701,21.792736 79.7828438,21.760096 77.1433191,22.245856 C74.7884679,22.674016 72.3203283,23.468896 69.9470799,24.792736 L88.0587124,24.792736 C87.2153426,23.569696 85.8723416,22.786336 84.2320794,22.338016" id="Fill-83"></path>
            </g>
        </g>
    </g>
</svg>